<?xml version="1.0" encoding="UTF-8" standalone="no"?>
<svg
   width="512"
   height="512"
   fill="none"
   viewBox="0 0 432 432"
   version="1.1"
   id="svg3"
   sodipodi:docname="icon.svg"
   inkscape:version="1.3.2 (091e20e, 2023-11-25, custom)"
   xmlns:inkscape="http://www.inkscape.org/namespaces/inkscape"
   xmlns:sodipodi="http://sodipodi.sourceforge.net/DTD/sodipodi-0.dtd"
   xmlns="http://www.w3.org/2000/svg"
   xmlns:svg="http://www.w3.org/2000/svg">
  <defs
     id="defs3" />
  <sodipodi:namedview
     id="namedview3"
     pagecolor="#ffffff"
     bordercolor="#000000"
     borderopacity="0.25"
     inkscape:showpageshadow="2"
     inkscape:pageopacity="0.0"
     inkscape:pagecheckerboard="0"
     inkscape:deskcolor="#d1d1d1"
     inkscape:zoom="1.5878906"
     inkscape:cx="255.68512"
     inkscape:cy="213.80566"
     inkscape:window-width="2560"
     inkscape:window-height="1009"
     inkscape:window-x="-8"
     inkscape:window-y="-8"
     inkscape:window-maximized="1"
     inkscape:current-layer="svg3" />
  <circle
     cx="216"
     cy="216"
     r="216"
     fill="#2e3943"
     id="circle1"
     style="fill:#000000" />
  <path
     fill="#f2faff"
     d="M398.073 216c0 97.433-81.517 176.419-182.073 176.419-100.556 0-182.073-78.986-182.073-176.419S115.444 39.581 216 39.581c100.556 0 182.073 78.986 182.073 176.419Z"
     id="path1" />
  <path
     fill="#7ebbed"
     fill-rule="evenodd"
     d="M216 359.34c81.702 0 147.934-64.175 147.934-143.34S297.702 72.66 216 72.66 68.065 136.835 68.065 216 134.298 359.34 216 359.34zm0 33.079c100.556 0 182.073-78.986 182.073-176.419S316.556 39.581 216 39.581C115.444 39.581 33.927 118.567 33.927 216S115.444 392.419 216 392.419z"
     clip-rule="evenodd"
     id="path2"
     style="fill:#aa0000" />
  <path
     fill="#031019"
     d="m 155.273,134.08374 -1.227,-28.215 c 3.68,0.7 8.063,0.875 18.052,0.875 12.092,0 28.041,-0.7 36.279,-1.752 3.504,-0.35 4.907,-0.876 7.185,-2.103 l 18.928,16.124 c -1.753,2.453 -2.279,3.505 -4.207,8.412 -1.576,3.856 -8.762,26.113 -11.567,35.577 12.97,2.63 20.155,4.557 29.97,8.588 1.226,-8.588 1.401,-13.144 1.401,-28.742 0,-4.03 -0.175,-6.31 -0.7,-9.99 l 30.495,1.051 c -0.877,4.207 -1.052,5.959 -1.227,12.794 -0.701,16.475 -1.403,24.361 -3.154,36.279 12.092,6.134 12.092,6.134 18.226,9.464 3.154,1.752 3.855,2.102 5.959,2.804 l -10.165,32.773 c -4.908,-4.381 -11.743,-9.113 -21.732,-14.721 -8.763,20.855 -23.31,36.103 -45.392,48.195 -7.36,-9.814 -12.97,-15.772 -21.907,-22.783 12.969,-6.134 18.928,-9.99 25.763,-16.475 6.66,-6.484 11.04,-12.793 15.247,-22.258 -11.217,-5.082 -18.403,-7.36 -30.846,-9.989 -7.185,21.382 -12.969,35.052 -18.051,43.29 -6.835,11.04 -16.124,16.824 -26.815,16.824 -8.237,0 -16.65,-3.68 -22.784,-9.99 -7.01,-7.185 -10.69,-17.175 -10.69,-28.742 0,-17.176 8.238,-32.072 22.609,-41.361 9.288,-5.959 19.103,-8.588 34.7,-9.465 3.155,-10.34 5.785,-19.278 8.238,-29.267 -7.712,0.701 -17.35,1.227 -29.093,1.752 -6.309,0.175 -8.412,0.35 -13.495,1.051 z m 26.64,53.279 c -8.238,1.402 -13.145,4.031 -17.527,9.64 -3.33,3.855 -4.907,8.412 -4.907,13.32 0,5.432 2.63,9.464 5.959,9.464 4.03,0 8.588,-9.114 16.475,-32.424 z"
     id="path3" />
  <text
     xml:space="preserve"
     style="font-style:normal;font-variant:normal;font-weight:normal;font-stretch:normal;font-size:61.956px;font-family:'Goudy Stout';-inkscape-font-specification:'Goudy Stout';fill:#f9f4e9;fill-opacity:1;stroke:#a6a6a6;stroke-width:5.16299;stroke-opacity:0"
     x="157.07155"
     y="280.61969"
     id="text3"
     transform="scale(0.9039606,1.1062429)"><tspan
       sodipodi:role="line"
       id="tspan3"
       style="font-style:normal;font-variant:normal;font-weight:normal;font-stretch:normal;font-family:'Goudy Stout';-inkscape-font-specification:'Goudy Stout';fill:#000000;stroke-width:5.16299"
       x="157.07155"
       y="280.61969">AT</tspan></text>
</svg>
